<mxfile host="app.diagrams.net" agent="Mozilla/5.0 (Windows NT 10.0; Win64; x64) AppleWebKit/537.36 (KHTML, like Gecko) Chrome/128.0.0.0 Safari/537.36" version="24.7.10">
  <diagram name="Page-1" id="ipilMW03opO8w7BNcQcp">
    <mxGraphModel dx="1434" dy="746" grid="1" gridSize="10" guides="1" tooltips="1" connect="1" arrows="1" fold="1" page="1" pageScale="1" pageWidth="850" pageHeight="1100" math="0" shadow="0">
      <root>
        <mxCell id="0" />
        <mxCell id="1" parent="0" />
        <mxCell id="sn0VpOzBBycuvjJeUooC-1" value="CASE" style="rounded=0;whiteSpace=wrap;html=1;fillColor=#bac8d3;strokeColor=#23445d;verticalAlign=top;" parent="1" vertex="1">
          <mxGeometry x="40" y="40" width="360" height="920" as="geometry" />
        </mxCell>
        <mxCell id="sn0VpOzBBycuvjJeUooC-8" value="MOTHERBOARD" style="rounded=0;whiteSpace=wrap;html=1;fillColor=#cdeb8b;strokeColor=#36393d;align=center;verticalAlign=top;" parent="1" vertex="1">
          <mxGeometry x="100" y="120" width="250" height="490" as="geometry" />
        </mxCell>
        <mxCell id="sn0VpOzBBycuvjJeUooC-2" value="CENTRAL PROCESSING UNIT/CPU" style="rounded=0;whiteSpace=wrap;html=1;fillColor=#eeeeee;strokeColor=#36393d;" parent="1" vertex="1">
          <mxGeometry x="160" y="160" width="120" height="60" as="geometry" />
        </mxCell>
        <mxCell id="sn0VpOzBBycuvjJeUooC-4" value="GRAPHICS PROCESSING UNIT/GPU" style="rounded=0;whiteSpace=wrap;html=1;fillColor=#eeeeee;strokeColor=#36393d;" parent="1" vertex="1">
          <mxGeometry x="160" y="240" width="120" height="60" as="geometry" />
        </mxCell>
        <mxCell id="sn0VpOzBBycuvjJeUooC-5" value="RANDOM ACCESS MEMORY/RAM" style="rounded=0;whiteSpace=wrap;html=1;" parent="1" vertex="1">
          <mxGeometry x="160" y="320" width="120" height="60" as="geometry" />
        </mxCell>
        <mxCell id="sn0VpOzBBycuvjJeUooC-6" value="SOLID STATE DRIVE/SSD" style="rounded=0;whiteSpace=wrap;html=1;" parent="1" vertex="1">
          <mxGeometry x="160" y="400" width="120" height="60" as="geometry" />
        </mxCell>
        <mxCell id="sn0VpOzBBycuvjJeUooC-11" value="" style="endArrow=classic;html=1;rounded=0;" parent="1" edge="1">
          <mxGeometry width="50" height="50" relative="1" as="geometry">
            <mxPoint x="430" y="189.71" as="sourcePoint" />
            <mxPoint x="280" y="189.71" as="targetPoint" />
          </mxGeometry>
        </mxCell>
        <mxCell id="sn0VpOzBBycuvjJeUooC-12" value="" style="endArrow=classic;html=1;rounded=0;" parent="1" edge="1">
          <mxGeometry width="50" height="50" relative="1" as="geometry">
            <mxPoint x="430" y="269.71" as="sourcePoint" />
            <mxPoint x="280" y="269.71" as="targetPoint" />
          </mxGeometry>
        </mxCell>
        <mxCell id="sn0VpOzBBycuvjJeUooC-13" value="" style="endArrow=classic;html=1;rounded=0;" parent="1" edge="1">
          <mxGeometry width="50" height="50" relative="1" as="geometry">
            <mxPoint x="430" y="349.71" as="sourcePoint" />
            <mxPoint x="280" y="349.71" as="targetPoint" />
          </mxGeometry>
        </mxCell>
        <mxCell id="sn0VpOzBBycuvjJeUooC-14" value="" style="endArrow=classic;html=1;rounded=0;" parent="1" edge="1">
          <mxGeometry width="50" height="50" relative="1" as="geometry">
            <mxPoint x="430" y="429.71" as="sourcePoint" />
            <mxPoint x="280" y="429.71" as="targetPoint" />
          </mxGeometry>
        </mxCell>
        <mxCell id="sn0VpOzBBycuvjJeUooC-15" value="" style="endArrow=none;html=1;rounded=0;" parent="1" edge="1">
          <mxGeometry width="50" height="50" relative="1" as="geometry">
            <mxPoint x="430" y="890" as="sourcePoint" />
            <mxPoint x="430" y="190" as="targetPoint" />
          </mxGeometry>
        </mxCell>
        <mxCell id="sn0VpOzBBycuvjJeUooC-18" value="PSU" style="rounded=0;whiteSpace=wrap;html=1;verticalAlign=top;" parent="1" vertex="1">
          <mxGeometry x="100" y="640" width="110" height="70" as="geometry" />
        </mxCell>
        <mxCell id="sn0VpOzBBycuvjJeUooC-21" value="" style="endArrow=none;html=1;rounded=0;exitX=0.453;exitY=0.003;exitDx=0;exitDy=0;exitPerimeter=0;" parent="1" source="sn0VpOzBBycuvjJeUooC-18" edge="1">
          <mxGeometry width="50" height="50" relative="1" as="geometry">
            <mxPoint x="100" y="660" as="sourcePoint" />
            <mxPoint x="150" y="610" as="targetPoint" />
          </mxGeometry>
        </mxCell>
        <mxCell id="sn0VpOzBBycuvjJeUooC-22" value="POWER" style="rounded=0;whiteSpace=wrap;html=1;fillColor=#f8cecc;strokeColor=#b85450;gradientColor=#ea6b66;" parent="1" vertex="1">
          <mxGeometry x="127.5" y="670" width="55" height="20" as="geometry" />
        </mxCell>
        <mxCell id="sn0VpOzBBycuvjJeUooC-23" value="" style="endArrow=classic;html=1;rounded=0;exitX=1;exitY=0.5;exitDx=0;exitDy=0;" parent="1" source="sn0VpOzBBycuvjJeUooC-22" edge="1">
          <mxGeometry width="50" height="50" relative="1" as="geometry">
            <mxPoint x="210" y="700" as="sourcePoint" />
            <mxPoint x="430" y="680" as="targetPoint" />
          </mxGeometry>
        </mxCell>
        <mxCell id="sn0VpOzBBycuvjJeUooC-24" value="COOLING SYSTEM" style="rounded=0;whiteSpace=wrap;html=1;verticalAlign=top;fillColor=#b1ddf0;strokeColor=#10739e;" parent="1" vertex="1">
          <mxGeometry x="85" y="730" width="270" height="220" as="geometry" />
        </mxCell>
        <mxCell id="sn0VpOzBBycuvjJeUooC-26" value="CPU FAN" style="ellipse;whiteSpace=wrap;html=1;aspect=fixed;" parent="1" vertex="1">
          <mxGeometry x="125" y="760" width="70" height="70" as="geometry" />
        </mxCell>
        <mxCell id="sn0VpOzBBycuvjJeUooC-28" value="GPU FAN" style="ellipse;whiteSpace=wrap;html=1;aspect=fixed;" parent="1" vertex="1">
          <mxGeometry x="245" y="760" width="70" height="70" as="geometry" />
        </mxCell>
        <mxCell id="sn0VpOzBBycuvjJeUooC-29" value="CASE FAN" style="ellipse;whiteSpace=wrap;html=1;aspect=fixed;" parent="1" vertex="1">
          <mxGeometry x="185" y="860" width="60" height="60" as="geometry" />
        </mxCell>
        <mxCell id="sn0VpOzBBycuvjJeUooC-34" value="" style="endArrow=classic;html=1;rounded=0;entryX=1;entryY=0.5;entryDx=0;entryDy=0;" parent="1" target="sn0VpOzBBycuvjJeUooC-29" edge="1">
          <mxGeometry width="50" height="50" relative="1" as="geometry">
            <mxPoint x="430" y="890" as="sourcePoint" />
            <mxPoint x="260" y="880" as="targetPoint" />
          </mxGeometry>
        </mxCell>
        <mxCell id="sn0VpOzBBycuvjJeUooC-35" value="" style="endArrow=classic;html=1;rounded=0;entryX=1;entryY=0.5;entryDx=0;entryDy=0;" parent="1" target="sn0VpOzBBycuvjJeUooC-28" edge="1">
          <mxGeometry width="50" height="50" relative="1" as="geometry">
            <mxPoint x="430" y="794.83" as="sourcePoint" />
            <mxPoint x="245" y="794.83" as="targetPoint" />
          </mxGeometry>
        </mxCell>
        <mxCell id="sn0VpOzBBycuvjJeUooC-38" value="" style="endArrow=classic;html=1;rounded=0;entryX=0.5;entryY=1;entryDx=0;entryDy=0;exitX=0.278;exitY=0.545;exitDx=0;exitDy=0;exitPerimeter=0;" parent="1" source="sn0VpOzBBycuvjJeUooC-24" target="sn0VpOzBBycuvjJeUooC-26" edge="1">
          <mxGeometry width="50" height="50" relative="1" as="geometry">
            <mxPoint x="120" y="890" as="sourcePoint" />
            <mxPoint x="170" y="840" as="targetPoint" />
          </mxGeometry>
        </mxCell>
        <mxCell id="sn0VpOzBBycuvjJeUooC-39" value="" style="endArrow=none;html=1;rounded=0;" parent="1" edge="1">
          <mxGeometry width="50" height="50" relative="1" as="geometry">
            <mxPoint x="160" y="850" as="sourcePoint" />
            <mxPoint x="430" y="850" as="targetPoint" />
          </mxGeometry>
        </mxCell>
        <mxCell id="sn0VpOzBBycuvjJeUooC-41" value="NETWORK CARD" style="rounded=0;whiteSpace=wrap;html=1;fillColor=#f5f5f5;gradientColor=#b3b3b3;strokeColor=#666666;" parent="1" vertex="1">
          <mxGeometry x="160" y="480" width="120" height="40" as="geometry" />
        </mxCell>
        <mxCell id="sn0VpOzBBycuvjJeUooC-42" value="" style="endArrow=classic;html=1;rounded=0;" parent="1" edge="1">
          <mxGeometry width="50" height="50" relative="1" as="geometry">
            <mxPoint x="430" y="499.71" as="sourcePoint" />
            <mxPoint x="280" y="499.71" as="targetPoint" />
          </mxGeometry>
        </mxCell>
        <mxCell id="sn0VpOzBBycuvjJeUooC-44" value="SOUND CARD" style="rounded=0;whiteSpace=wrap;html=1;fillColor=#fff2cc;gradientColor=#ffd966;strokeColor=#d6b656;" parent="1" vertex="1">
          <mxGeometry x="160" y="540" width="120" height="40" as="geometry" />
        </mxCell>
        <mxCell id="sn0VpOzBBycuvjJeUooC-45" value="" style="endArrow=classic;html=1;rounded=0;" parent="1" edge="1">
          <mxGeometry width="50" height="50" relative="1" as="geometry">
            <mxPoint x="430" y="559.71" as="sourcePoint" />
            <mxPoint x="280" y="559.71" as="targetPoint" />
          </mxGeometry>
        </mxCell>
      </root>
    </mxGraphModel>
  </diagram>
</mxfile>
